<?xml version="1.0" standalone="no"?>
<svg viewBox="0 0 200 200" xmlns="http://www.w3.org/2000/svg">
  <path fill="#48B7B1" d="M52.4,-68.4C66.5,-61.9,75.7,-44.7,78.6,-27.5C81.6,-10.2,78.4,7.1,73.5,24.3C68.5,41.5,61.7,58.6,49.2,68.5C36.6,78.4,18.3,81.1,2.3,77.9C-13.6,74.7,-27.3,65.5,-39.3,55.4C-51.3,45.4,-61.8,34.4,-70.7,19.9C-79.7,5.4,-87.2,-12.7,-83.5,-28.1C-79.8,-43.5,-65,-56.3,-49.2,-62.3C-33.4,-68.3,-16.7,-67.6,1.2,-69.2C19.1,-70.9,38.3,-75,52.4,-68.4Z" transform="translate(100 100)" />
</svg>
